<?xml version="1.0" encoding="utf-8"?>
<!-- Generator: Adobe Illustrator 18.0.0, SVG Export Plug-In . SVG Version: 6.00 Build 0)  -->
<!DOCTYPE svg PUBLIC "-//W3C//DTD SVG 1.1//EN" "http://www.w3.org/Graphics/SVG/1.1/DTD/svg11.dtd">
<svg version="1.1" xmlns="http://www.w3.org/2000/svg" xmlns:xlink="http://www.w3.org/1999/xlink" x="0px" y="0px"
	 viewBox="0 0 256 256" enable-background="new 0 0 256 256" xml:space="preserve">
<g id="Calque_2">
	<path fill="#5B4181" d="M198.7,202.7H57.3c-2.2,0-4-1.8-4-4V57.3c0-2.2,1.8-4,4-4h141.3c2.2,0,4,1.8,4,4v141.3
		C202.7,200.9,200.9,202.7,198.7,202.7z"/>
	<text transform="matrix(1 0 0 1 74.5732 180.5486)" fill="#FFFFFF" font-family="'HelveticaLTStd-Bold'" font-size="148">B</text>
</g>
<g id="Calque_1">
	<g display="none">
		<path display="inline" fill="#CCCCCC" stroke="#000000" stroke-miterlimit="10" d="M165.7,156.2h-26.4c-0.7,0-1.2-0.5-1.2-1.2
			v-26.4c0-0.7,0.5-1.2,1.2-1.2h26.4c0.6,0,1.2,0.5,1.2,1.2v26.4C166.9,155.7,166.4,156.2,165.7,156.2z"/>
		<g display="inline">
			<path fill="#CCCCCC" d="M157,141.6c1.9,1.1,2.7,2.5,2.4,4.4c-0.3,2-1.4,3.2-3.4,3.6c-1,0.2-2,0.2-3.1,0.2c-2,0-5.9,0-5.9,0
				l-0.3,0v-0.9v-13.3v-1c0,0,0.6,0,1,0c2.3,0.1,4.5,0,6.8,0c2.2,0,3.8,1.1,4.2,2.9C159,139.1,158.6,140.5,157,141.6z M149.7,147.4
				c1.6,0,3.1,0,4.6,0c1.3,0,2.1-0.8,2.2-1.9c0.1-1.3-0.5-2.3-1.9-2.4c-1.6-0.1-3.3,0-4.9,0C149.7,144.5,149.7,145.9,149.7,147.4z
				 M149.8,137c0,1.3,0,2.5,0,3.8c1.5,0,2.9,0,4.3,0c1.1,0,1.8-0.8,1.8-1.9c0-1.2-0.5-1.9-1.8-1.9C152.7,136.9,151.3,137,149.8,137z
				"/>
		</g>
	</g>
	<g>
		<path fill="#CCCCCC" d="M31.9,78.9H6.8c-1,0-1.8,0.8-1.8,1.7v6.8v0.4V99c0,1.6,1.3,2.8,3,2.8h22.8c1.7,0,3-1.3,3-2.8V87.9v-0.4
			v-6.8C33.7,79.7,32.9,78.9,31.9,78.9z M31,99c0,0.1-0.3,0.1-0.3,0.1H8c0,0-0.3,0-0.3-0.1v-8.8H31V99z"/>
	</g>
	<g>
		<g>
			<path fill="#CCCCCC" d="M22.5,157.9l-2.3,9h-1.8l-2.2-9H22.5z M20.7,168.2v3.6H18v-3.6H20.7z"/>
		</g>
		<g>
			<path fill="#CCCCCC" d="M19.4,179C11.5,179,5,172.5,5,164.6c0-7.9,6.5-14.4,14.4-14.4s14.4,6.5,14.4,14.4
				C33.7,172.5,27.3,179,19.4,179z M19.4,154.3c-5.7,0-10.3,4.6-10.3,10.3c0,5.7,4.6,10.3,10.3,10.3s10.3-4.6,10.3-10.3
				C29.7,158.9,25.1,154.3,19.4,154.3z"/>
		</g>
	</g>
	<g>
		<g>
			<path fill="#CCCCCC" d="M9.8,240.3v0.1h3.1v-2.1c0-0.9,0-1.8,0.1-2.8h-0.1L9.8,240.3z"/>
			<path fill="#CCCCCC" d="M30.1,226.8H8.6c-2,0-3.6,1.6-3.6,3.6v17.1c0,2,1.6,3.6,3.6,3.6h21.5c2,0,3.6-1.6,3.6-3.6v-17.1
				C33.7,228.4,32.1,226.8,30.1,226.8z M18,241.6h-2.3v1.4c0,0.3,0,0.6,0,0.8c0,0.2,0.1,0.4,0.1,0.4s0.2,0.2,0.3,0.3
				s0.3,0.1,0.5,0.2v0.6H12v-0.6c0.2,0,0.4-0.1,0.5-0.2c0.1-0.1,0.2-0.2,0.3-0.3c0.1-0.1,0.1-0.3,0.1-0.4c0-0.2,0-0.4,0-0.7v-1.4
				H8.1v-1l5.5-8h2.1v7.8h0.3c0.3,0,0.5,0,0.6,0c0.1,0,0.2-0.1,0.3-0.2c0.1-0.1,0.2-0.3,0.3-0.6h1L18,241.6z M28.1,245.3h-8.4v-0.6
				c0.3-0.6,0.6-1.2,1.1-1.9c0.5-0.7,1.1-1.4,1.8-2.3c0.7-0.8,1.2-1.4,1.5-1.9c0.4-0.5,0.6-1,0.8-1.4s0.3-0.9,0.3-1.4
				c0-0.7-0.1-1.2-0.4-1.6c-0.3-0.4-0.7-0.6-1.2-0.6c-0.5,0-0.9,0.2-1.2,0.5c-0.3,0.4-0.5,0.9-0.7,1.7h-1.7v-2.2
				c0.8-0.3,1.3-0.5,1.7-0.6s0.9-0.2,1.3-0.3c0.4,0,0.9-0.1,1.3-0.1c0.9,0,1.7,0.1,2.2,0.4c0.5,0.2,1,0.6,1.3,1
				c0.3,0.4,0.4,0.9,0.4,1.4c0,0.5-0.1,0.9-0.3,1.3c-0.2,0.4-0.5,0.9-0.9,1.4c-0.4,0.5-1.2,1.3-2.2,2.3c-0.5,0.4-0.9,0.9-1.3,1.4
				c-0.4,0.4-0.7,0.9-0.9,1.1v0.1h3.2c0.4,0,0.7,0,0.9-0.1c0.2,0,0.4-0.2,0.4-0.3c0.1-0.1,0.2-0.4,0.3-0.6h1.1L28.1,245.3z"/>
		</g>
	</g>
	<g>
		<g>
			<rect x="87.5" y="241.5" fill="#CCCCCC" width="4.7" height="1.8"/>
			<path fill="#CCCCCC" d="M102.6,235.7H81c-2,0-3.6,1.6-3.6,3.6v8.1c0,2,1.6,3.6,3.6,3.6h21.5c2,0,3.6-1.6,3.6-3.6v-8.1
				C106.1,237.4,104.5,235.7,102.6,235.7z M85.5,247.3h-1.3l-4.4-6.6v6.6h-1.3v-8.9l1.3,0l4.4,6.6v-6.6h1.3L85.5,247.3L85.5,247.3z
				 M93.4,244.4c0,0.1,0,0.1-0.1,0.1h-5.8v1.3h5.8c0.1,0,0.1,0,0.1,0.1v1.2c0,0.1,0,0.1-0.1,0.1h-5.7l-1.5-1.4c0-1.6,0-2.8,0-3.6
				v-0.8c0,0,0.5-0.5,1.5-1.5H92c0,0,0.5,0.4,1.4,1.4L93.4,244.4L93.4,244.4z M105.1,245.9l-1.4,1.4h-3.3l-0.7-0.7l-0.6,0.7h-3.5
				l-1.4-1.4V240h1.3v5.9H99V240h1.3v5.9h3.4V240h1.4V245.9z"/>
		</g>
	</g>
	<g>
		<path fill="#CCCCCC" d="M170,228h-11.5c-4.8,0-8.6,3.9-8.6,8.6v5.7c0,4.8,3.9,8.6,8.6,8.6H170c4.8,0,8.6-3.9,8.6-8.6v-5.7
			C178.6,231.9,174.7,228,170,228z M164.2,246.7v-4.8h-9.6v-4.8h9.6v-4.8l9.6,7.1L164.2,246.7z"/>
	</g>
	<g>
		<g>
			<path fill="#CCCCCC" d="M230.3,245.7c0,0.3,0,0.4,0,0.6c0,0.1,0.1,0.2,0.1,0.3c0,0.1,0.2,0.1,0.3,0.2c0.1,0,0.3,0.1,0.5,0.1
				c0.2,0,0.5,0,0.8,0v0.6h-5.7v-0.6c0.5,0,0.9,0,1-0.1c0.2,0,0.4-0.1,0.5-0.2c0.1-0.1,0.2-0.2,0.2-0.3c0-0.1,0.1-0.4,0.1-0.7v-4.7
				c0-0.2,0-0.3-0.1-0.4c0-0.1-0.2-0.1-0.3-0.1c-0.1,0-0.3,0-0.4,0.1c-0.2,0.1-0.5,0.3-1,0.6l-0.4-0.7l3.4-2.1h0.9c0,0.4,0,1,0,1.7
				V245.7z"/>
		</g>
		<g>
			<path fill="#CCCCCC" d="M235.7,251h-13.5v-16.2h13.5V251z M223.2,250.1h11.7v-14.4h-11.7V250.1z"/>
		</g>
		<g>
			<path fill="#CCCCCC" d="M247.6,245.7l-0.1,1.8h-6.7v-1.7c0.2-0.2,0.6-0.4,1.1-0.8c1.2-0.9,2.1-1.6,2.7-2.2
				c0.6-0.5,0.9-1.1,0.9-1.6c0-0.4-0.1-0.6-0.3-0.9c-0.2-0.2-0.5-0.4-0.9-0.4c-0.9,0-1.4,0.6-1.5,1.7l-1.8-0.4c0.4-2,1.6-3,3.5-3
				c1.1,0,1.9,0.3,2.4,0.9c0.6,0.5,0.9,1.2,0.9,2c0,0.8-0.3,1.5-0.9,2.2c-0.6,0.6-1.7,1.4-3.3,2.4L247.6,245.7L247.6,245.7z"/>
		</g>
		<g>
			<path fill="#CCCCCC" d="M251,251h-13.5v-16.2H251V251z M238.4,250.1h11.7v-14.4h-11.7V250.1z"/>
		</g>
	</g>
	<g>
		<polygon fill="#CCCCCC" points="245.6,161.2 242.6,161.2 234.8,161.2 240.2,168.4 234.8,175.6 242.6,175.6 245.6,175.6 251,168.4 
					"/>
		<polygon fill="#CCCCCC" points="229.5,161.2 228.2,161.2 222.3,161.2 222.3,175.6 228.2,175.6 229.5,175.6 234.8,168.4 		"/>
	</g>
	<g>
		<rect x="222.3" y="79.5" fill="#CCCCCC" width="19.7" height="19.7"/>
		<rect x="231.3" y="101.1" fill="#CCCCCC" width="19.7" height="7.2"/>
		<rect x="243.8" y="79.5" fill="#CCCCCC" width="7.2" height="19.7"/>
		<rect x="222.3" y="101.1" fill="#CCCCCC" width="7.2" height="7.2"/>
	</g>
	<g>
		<rect x="222.3" y="5" fill="#CCCCCC" width="28.7" height="7.2"/>
		<rect x="222.3" y="17.6" fill="#CCCCCC" width="28.7" height="1.8"/>
		<rect x="222.3" y="24.7" fill="#CCCCCC" width="28.7" height="1.8"/>
		<rect x="222.3" y="31.9" fill="#CCCCCC" width="28.7" height="1.8"/>
		<rect x="222.3" y="5" fill="#CCCCCC" width="1.8" height="28.7"/>
		<rect x="249.2" y="5" fill="#CCCCCC" width="1.8" height="28.7"/>
		<rect x="240.2" y="5" fill="#CCCCCC" width="1.8" height="28.7"/>
		<rect x="231.3" y="5" fill="#CCCCCC" width="1.8" height="28.7"/>
	</g>
	<g>
		<g>
			<path fill="#CCCCCC" d="M149.2,13.1c0-1.1,0.4-2.2,0.7-3.2c0.5-1.1,1.1-2,2-2.7c0.7-0.7,1.6-1.3,2.7-1.6c1.1-0.4,2.2-0.5,3.1-0.5
				c1.1,0,2.2,0.4,3.1,1.1c1.3,0.5,2.2,1.4,2.9,2.7c0.9-1.3,1.8-2.2,2.9-2.7c1.1-0.5,2.2-0.9,3.2-1.1c1.1,0,2.2,0.2,3.1,0.5
				s2,0.9,2.7,1.6s1.4,1.6,1.8,2.7c0.5,1.1,0.7,2.2,0.7,3.2s-0.4,2-0.9,3.1c-0.5,1.1-1.4,2.2-2.5,3.2c-1.1,1.1-2.2,2.2-3.2,3.4
				c-1.1,1.1-2.5,2.5-3.9,3.9c-1.4,1.6-2.7,3.1-3.8,4.5c-1.1-1.4-2.3-3.1-3.8-4.5c-1.4-1.6-2.7-2.9-3.9-3.9
				c-1.1-1.3-2.2-2.3-3.2-3.4s-1.8-2.2-2.5-3.2C149.6,15.1,149.2,14,149.2,13.1z"/>
		</g>
	</g>
	<g>
		<rect x="76.2" y="6" fill="none" stroke="#CCCCCC" stroke-width="2" stroke-miterlimit="10" width="28.6" height="24.1"/>
		<polygon fill="#CCCCCC" points="80,27 101,27 101,13 95.8,19 86.8,10.6 80,19 		"/>
		<circle fill="#CCCCCC" cx="95.7" cy="11.6" r="2.7"/>
	</g>
	<g>
		<g id="hand_1_">
		</g>
		<path fill="#CCCCCC" d="M33.8,6H8.6C7.7,6,6,7.7,6,8.7v10.8c0,1,1.7,2.6,2.6,2.6H19v-3.8c0,0,0-0.1,0-0.2c0-0.2,0.4-0.4,0.5-0.5
			c0.2-0.4,0.7-0.7,1.1-0.7c0.4,0,0.9,0.3,1.1,0.7c0,0.1,0.4,0.3,0.4,0.5c0,0.1,0,0.1,0,0.2v1.1c0,0,0,0,0,0.1c0,0.1,0,0.2,0,0.4
			c0,0,0,0.1,0,0.1V21c0,0,0.2,0,0.5,0c0.5,0,0.9,0.3,1.1,0.8c0,0,0,0.2,0,0.2h-0.2l0,0h0.4c0.1,0,0.4,0,0.7,0c0.2,0,0.4,0,0.6,0
			h8.5c1,0,1.3-1.6,1.3-2.6V8.7C35,7.7,34.8,6,33.8,6z"/>
		<g>
			<path fill="#CCCCCC" d="M20.4,32.2c-0.2,0-0.4-0.1-0.4-0.4c-0.6-2.9-1.8-5.2-3.5-6.8c-0.1-0.1-0.2-0.2-0.2-0.4
				c0.2-1.1,0.5-1.7,1.2-1.8c0.5-0.1,1.6,0.1,1.6,0.7v-5.2c0-0.1,0-0.1,0-0.2c0-0.2,0.2-0.6,0.2-0.8c0.3-0.8,0.9-1.2,1.4-1.2h0
				c0.4,0,0.9,0.4,1.2,1.2C22,17.4,22,17.8,22,18c0,0.1,0,0.2,0,0.2V20c0,0,0.3,0,0.5,0c0.6,0,1,0,1.3,1h0c0.2,0,0.4,0,0.7,0
				c0.6,0,1.1,1,1.4,1l0,0c0.1,0,0.4,0,0.6,0c0.7,0,1.1,0.1,1.4,0.7c0.1,0.2,0.1,0.2,0.1,0.4c0,0.1,0,0.2,0,0.3v0.9
				c0,2.2-0.2,3.8-0.5,4.9c-0.3,1.1-0.5,2-0.8,2.7c0,0.2-0.2,0.3-0.4,0.3L20.4,32.2L20.4,32.2z M17.2,24.5c1.7,1.7,2.9,3.5,3.5,6.5
				h5.5c0.2,0,0.7-1.3,0.9-2.2c0.3-1.1-0.1-2.6,0.9-4.6v-0.9c0,0,0-0.1,0-0.2c0-0.1-0.3-0.4-0.4-0.5C27.5,22.3,27,22,26.7,22
				c-0.1,0-0.7,0-0.7,0v0.4l0,0v1.2l0,0v0.3c0,0,0,0,0,0.1v0.1c0,0.2-0.3,0.4-0.5,0.4l0,0c-0.3,0-0.5-0.2-0.5-0.4v-1.6
				c0,0,0-0.1,0-0.1c0-0.1,0.2,0,0.1-0.1C25,21.9,25,22,24.7,22c-0.1,0,0.3,0-0.7,0v-0.2l0,0v1.3c0,0.3-0.2,0.4-0.5,0.4
				S23,23.4,23,23.1v-1.3c0,0,0-0.1,0-0.1c0-0.1,0.2,0.3,0.1,0.2C23,21.6,23,22,22.6,22c-0.1,0-0.6,0-0.6,0v0.4c0,0.3,0,0.4,0,0.4
				c-1,0,0-0.2,0-0.4v-4.2c0,0,0-0.1,0-0.1c0-0.1-0.3-0.3-0.4-0.4c-0.1-0.3-0.5-0.4-0.6-0.4c-0.2,0-0.5,0.1-0.7,0.4
				c0,0.1-0.3,0.2-0.3,0.4c0,0,0,0.1,0,0.1v6.5c0,0.2,0,0.4-0.2,0.4c-0.2,0-0.3,0-0.4-0.1c-1-1.3-1.5-1.4-1.5-1.3
				C17.6,23.6,17.4,23.7,17.2,24.5z"/>
		</g>
	</g>
</g>
</svg>
